<svg version="1.1" viewBox="0.0 0.0 100.0 100.0" fill="none" stroke="none" stroke-linecap="square" stroke-miterlimit="10" xmlns:xlink="http://www.w3.org/1999/xlink" xmlns="http://www.w3.org/2000/svg"><clipPath id="p.0"><path d="m0 0l100.0 0l0 100.0l-100.0 0l0 -100.0z" clip-rule="nonzero"/></clipPath><g clip-path="url(#p.0)"><path fill="currentColor" fill-opacity="0.0" d="m0 0l100.0 0l0 100.0l-100.0 0z" fill-rule="evenodd"/><path fill="currentColor" d="m60.98177 61.92741l0 0c-1.0289421 3.5749626 -5.285057 6.826542 -10.366516 7.9198036c-5.081455 1.0932617 -9.714085 -0.24594116 -11.283581 -3.261856c-1.5694962 -3.0159187 0.317688 -6.9523125 4.596573 -9.587784c4.2788887 -2.6354675 9.876541 -3.3091698 13.634075 -1.6409187z" fill-rule="evenodd"/><path fill="currentColor" d="m56.595802 20.491198l0 0c0 -0.8016052 0.64982605 -1.4514351 1.4514313 -1.4514351l1.5380783 0l0 0c0.38494492 0 0.7541199 0.15291977 1.0263176 0.4251156c0.27219772 0.27219582 0.4251175 0.6413746 0.4251175 1.0263195l0 40.37272c0 0.8016052 -0.64982986 1.4514351 -1.4514351 1.4514351l-1.5380783 0c-0.8016052 0 -1.4514313 -0.64982986 -1.4514313 -1.4514351z" fill-rule="evenodd"/><path fill="currentColor" d="m-112.55104 88.04289l0 0c-1.0289383 3.5749664 -5.285057 6.8265457 -10.366516 7.9198074c-5.0814514 1.0932541 -9.714081 -0.24594116 -11.283585 -3.2618637c-1.5694885 -3.015915 0.317688 -6.9523087 4.596573 -9.587776c4.2788925 -2.6354675 9.876549 -3.3091736 13.634079 -1.6409225z" fill-rule="evenodd"/><path fill="currentColor" d="m-116.937004 46.60668l0 0c0 -0.8016052 0.64982605 -1.4514351 1.4514313 -1.4514351l1.5380783 0l0 0c0.3849411 0 0.7541199 0.15291977 1.0263138 0.4251175c0.27220154 0.27219772 0.4251175 0.6413727 0.4251175 1.0263176l0 40.372726c0 0.8016052 -0.64982605 1.4514313 -1.4514313 1.4514313l-1.5380783 0c-0.8016052 0 -1.4514313 -0.64982605 -1.4514313 -1.4514313z" fill-rule="evenodd"/><path fill="currentColor" d="m-86.12584 95.297485l0 0c-1.0289459 3.5749664 -5.285057 6.8265457 -10.366516 7.9198074c-5.081459 1.0932541 -9.714088 -0.24594116 -11.283585 -3.261856c-1.5694962 -3.0159225 0.317688 -6.9523163 4.596573 -9.587784c4.278885 -2.6354675 9.876541 -3.3091736 13.634079 -1.6409149z" fill-rule="evenodd"/><path fill="currentColor" d="m-90.51181 53.861275l0 0c0 -0.8016052 0.64982605 -1.4514313 1.4514313 -1.4514313l1.5380783 0l0 0c0.3849411 0 0.7541199 0.15291595 1.0263214 0.42511368c0.2721939 0.27219772 0.42510986 0.6413727 0.42510986 1.0263176l0 40.372726c0 0.8016052 -0.64982605 1.4514313 -1.4514313 1.4514313l-1.5380783 0c-0.8016052 0 -1.4514313 -0.64982605 -1.4514313 -1.4514313z" fill-rule="evenodd"/><path fill="currentColor" d="m-115.0487 46.42006l0 0c0.20519257 -0.81471634 1.0307693 -1.3040771 1.8439865 -1.0930138l25.936974 6.731735c0.3905182 0.10135651 0.7259064 0.35398102 0.9323654 0.702301c0.20646667 0.34832 0.2671051 0.76379776 0.16856384 1.1550407l-0.3278122 1.3016129l0 0c-0.20518494 0.81472015 -1.0307693 1.3040771 -1.8439865 1.0930138l-25.936974 -6.731735c-0.81320953 -0.21106339 -1.3061142 -1.0426216 -1.1009293 -1.8573418z" fill-rule="evenodd"/><path fill="currentColor" d="m-202.98674 83.185936l0 0c-1.0289307 3.5749664 -5.2850494 6.8265457 -10.366516 7.9198074c-5.0814514 1.0932617 -9.714081 -0.24594116 -11.283569 -3.261856c-1.5695038 -3.0159225 0.317688 -6.9523163 4.596573 -9.587784c4.278885 -2.6354675 9.876541 -3.309166 13.634064 -1.6409149z" fill-rule="evenodd"/><path fill="currentColor" d="m-207.3727 41.749725l0 0c0 -0.8016014 0.64982605 -1.4514313 1.4514313 -1.4514313l1.5380707 0l0 0c0.38494873 0 0.7541199 0.15291595 1.0263214 0.42511368c0.27220154 0.27219772 0.42510986 0.6413765 0.42510986 1.0263176l0 40.372726c0 0.8016052 -0.64982605 1.4514313 -1.4514313 1.4514313l-1.5380707 0c-0.8016052 0 -1.4514313 -0.64982605 -1.4514313 -1.4514313z" fill-rule="evenodd"/><path fill="currentColor" d="m-176.56154 90.44053l0 0c-1.0289459 3.5749664 -5.2850494 6.8265457 -10.366516 7.9198074c-5.0814514 1.0932617 -9.714081 -0.24594116 -11.283585 -3.261856c-1.5694885 -3.0159225 0.317688 -6.9523163 4.596573 -9.587784c4.278885 -2.6354675 9.876541 -3.309166 13.634079 -1.6409149z" fill-rule="evenodd"/><path fill="currentColor" d="m-180.94751 49.004322l0 0c0 -0.8016052 0.64982605 -1.4514351 1.4514313 -1.4514351l1.5380859 0l0 0c0.38493347 0 0.7541199 0.15291977 1.0263214 0.42511368c0.27218628 0.27219772 0.42510986 0.6413765 0.42510986 1.0263214l0 40.372723c0 0.8016052 -0.64982605 1.4514313 -1.4514313 1.4514313l-1.5380859 0c-0.8016052 0 -1.4514313 -0.64982605 -1.4514313 -1.4514313z" fill-rule="evenodd"/><path fill="currentColor" d="m-205.48439 41.563103l0 0c0.20518494 -0.81471634 1.0307617 -1.3040771 1.8439789 -1.09301l25.936981 6.7317314c0.3905182 0.10135651 0.7259064 0.35398102 0.9323578 0.702301c0.20646667 0.34832 0.2671051 0.7638016 0.16856384 1.1550407l-0.32780457 1.3016129l0 0c-0.20518494 0.81472015 -1.030777 1.3040771 -1.8439789 1.0930138l-25.936981 -6.7317314c-0.81321716 -0.21106339 -1.3061218 -1.0426254 -1.1009369 -1.8573456z" fill-rule="evenodd"/><path fill="currentColor" d="m-150.86456 97.04659l0 0c-1.0289459 3.5749588 -5.2850647 6.8265457 -10.366516 7.9198074c-5.0814667 1.0932541 -9.714096 -0.24594879 -11.283585 -3.2618637c-1.5695038 -3.015915 0.317688 -6.9523087 4.596573 -9.587776c4.278885 -2.6354675 9.876541 -3.3091736 13.634079 -1.6409225z" fill-rule="evenodd"/><path fill="currentColor" d="m-155.25053 55.610382l0 0c0 -0.8016052 0.64982605 -1.4514351 1.4514313 -1.4514351l1.5380707 0l0 0c0.38494873 0 0.75413513 0.15291977 1.0263214 0.42511368c0.27220154 0.27219772 0.42512512 0.6413765 0.42512512 1.0263214l0 40.37272c0 0.8016052 -0.6498413 1.4514389 -1.4514465 1.4514389l-1.5380707 0c-0.8016052 0 -1.4514313 -0.6498337 -1.4514313 -1.4514389z" fill-rule="evenodd"/><path fill="currentColor" d="m-179.78741 48.169163l0 0c0.20518494 -0.81471634 1.0307617 -1.3040733 1.8439789 -1.09301l25.936966 6.7317314c0.39053345 0.10135651 0.7259064 0.35398102 0.93237305 0.702301c0.20646667 0.34832 0.2671051 0.7638016 0.16856384 1.1550407l-0.32781982 1.3016129l0 0c-0.20518494 0.81472015 -1.0307617 1.3040771 -1.8439789 1.0930138l-25.936966 -6.7317314c-0.81321716 -0.21106339 -1.3061218 -1.0426254 -1.1009369 -1.8573456z" fill-rule="evenodd"/><path fill="currentColor" d="m-355.9211 88.04289l0 0c-1.0289612 3.5749664 -5.2850647 6.8265457 -10.366516 7.9198074c-5.0814514 1.0932541 -9.714081 -0.24594116 -11.2836 -3.2618637c-1.5694885 -3.015915 0.317688 -6.9523087 4.596588 -9.587776c4.2789 -2.6354675 9.876526 -3.3091736 13.634064 -1.6409225z" fill-rule="evenodd"/><path fill="currentColor" d="m-360.3071 46.60668l0 0c0 -0.8016052 0.6498413 -1.4514351 1.4514465 -1.4514351l1.5380859 0l0 0c0.38494873 0 0.7541199 0.15291977 1.0263062 0.4251175c0.27218628 0.27219772 0.42510986 0.6413727 0.42510986 1.0263176l0 40.372726c0 0.8016052 -0.6498108 1.4514313 -1.451416 1.4514313l-1.5380859 0c-0.8016052 0 -1.4514465 -0.64982605 -1.4514465 -1.4514313z" fill-rule="evenodd"/><path fill="currentColor" d="m-333.76944 94.015434l0 0c-1.0289307 3.5749664 -5.285034 6.8265457 -10.366516 7.9198074c-5.0814514 1.0932541 -9.714081 -0.24594116 -11.283569 -3.2618637c-1.5694885 -3.015915 0.317688 -6.9523087 4.596588 -9.587776c4.2788696 -2.6354675 9.876526 -3.3091736 13.634064 -1.6409225z" fill-rule="evenodd"/><path fill="currentColor" d="m-338.1554 52.579224l0 0c0 -0.8016052 0.6498413 -1.4514351 1.4514465 -1.4514351l1.5380554 0l0 0c0.38494873 0 0.7541199 0.15291977 1.0263367 0.4251175c0.27218628 0.2721939 0.42510986 0.6413727 0.42510986 1.0263176l0 40.372726c0 0.8015976 -0.6498413 1.4514313 -1.4514465 1.4514313l-1.5380554 0c-0.8016052 0 -1.4514465 -0.6498337 -1.4514465 -1.4514313z" fill-rule="evenodd"/><path fill="currentColor" d="m-358.41876 46.42006l0 0c0.20516968 -0.81471634 1.0307617 -1.3040771 1.8439636 -1.0930138l25.936981 6.731735c0.39053345 0.10135651 0.7258911 0.35398102 0.93237305 0.702301c0.20645142 0.34832 0.26708984 0.76379776 0.16854858 1.1550407l-0.3277893 1.3016129l0 0c-0.2052002 0.81472015 -1.0307922 1.3040771 -1.8439941 1.0930138l-25.936981 -6.731735c-0.8132019 -0.21106339 -1.3061218 -1.0426216 -1.1009216 -1.8573418z" fill-rule="evenodd"/><path fill="currentColor" d="m-310.63657 99.76679l0 0c-1.0289307 3.5749664 -5.2850647 6.8265457 -10.366516 7.9198074c-5.0814514 1.0932541 -9.714081 -0.24594116 -11.283569 -3.261856c-1.5694885 -3.0159225 0.317688 -6.9523163 4.5965576 -9.587784c4.2789 -2.6354675 9.876556 -3.3091736 13.634094 -1.6409149z" fill-rule="evenodd"/><path fill="currentColor" d="m-315.02252 58.33058l0 0c0 -0.8016052 0.6498108 -1.4514313 1.451416 -1.4514313l1.5380859 0l0 0c0.38494873 0 0.7541199 0.15291595 1.0263062 0.42511368c0.2722168 0.27219772 0.42514038 0.6413727 0.42514038 1.0263176l0 40.372726c0 0.8016052 -0.6498413 1.4514313 -1.4514465 1.4514313l-1.5380859 0c-0.8016052 0 -1.451416 -0.64982605 -1.451416 -1.4514313z" fill-rule="evenodd"/><path fill="currentColor" d="m-332.7218 53.02612l0 0c0.2052002 -0.81471634 1.0307617 -1.3040771 1.8439941 -1.0930138l25.93695 6.731735c0.39053345 0.10135651 0.72592163 0.35398102 0.93237305 0.702301c0.20648193 0.34832 0.26708984 0.7638016 0.1685791 1.1550407l-0.32781982 1.3016129l0 0c-0.2052002 0.81472015 -1.0307617 1.3040771 -1.8439941 1.0930138l-25.936981 -6.731735c-0.8132019 -0.21106339 -1.3061218 -1.0426216 -1.1009216 -1.8573418z" fill-rule="evenodd"/><path fill="currentColor" d="m-286.80472 106.22456l0 0c-1.0289612 3.5749664 -5.2850647 6.8265457 -10.366516 7.9198074c-5.0814514 1.0932541 -9.714081 -0.24594116 -11.2836 -3.2618637c-1.5694885 -3.015915 0.317688 -6.9523087 4.596588 -9.587776c4.2788696 -2.6354675 9.876526 -3.3091736 13.634064 -1.6409225z" fill-rule="evenodd"/><path fill="currentColor" d="m-291.1907 64.96789l0 0c0 -0.8016052 0.6498413 -1.4514351 1.4514465 -1.4514351l1.5380859 0l0 0c0.3849182 0 0.7541199 0.15291595 1.0263062 0.42511368c0.27218628 0.2721939 0.42510986 0.6413727 0.42510986 1.0263214l0 40.37272c0 0.8016052 -0.6498108 1.4514389 -1.451416 1.4514389l-1.5380859 0c-0.8016052 0 -1.4514465 -0.6498337 -1.4514465 -1.4514389z" fill-rule="evenodd"/><path fill="currentColor" d="m-307.48572 59.6639l0 0c0.20516968 -0.81472015 1.0308838 -1.3045654 1.8442688 -1.0941048l17.747406 4.592182c0.390625 0.10106659 0.7260742 0.35341644 0.93258667 0.70153046c0.20651245 0.34811783 0.2671814 0.7634773 0.16864014 1.1547203l-0.32781982 1.3016129c-0.20516968 0.81472015 -1.0308838 1.3045654 -1.8442688 1.0941086l-17.747437 -4.592186c-0.8133545 -0.21046066 -1.3063965 -1.0415344 -1.1011963 -1.8562508z" fill-rule="evenodd"/><path fill="currentColor" d="m-359.60614 54.2114l0 0c0.20516968 -0.81472015 1.0307617 -1.3040771 1.8439636 -1.0930138l25.936981 6.731735c0.39053345 0.10135651 0.7258911 0.35398102 0.93237305 0.7022972c0.20645142 0.34832 0.26708984 0.7638016 0.16854858 1.1550446l-0.3277893 1.3016129l0 0c-0.2052002 0.81471634 -1.0307922 1.3040733 -1.8439941 1.0930138l-25.936981 -6.731735c-0.8132019 -0.21106339 -1.3061218 -1.0426254 -1.1009216 -1.8573418z" fill-rule="evenodd"/><path fill="currentColor" d="m-333.90918 60.81746l0 0c0.20516968 -0.81472015 1.0307617 -1.3040771 1.8439941 -1.0930138l25.93695 6.7317314c0.39053345 0.10135651 0.72592163 0.35398102 0.93237305 0.702301c0.20648193 0.34832 0.26708984 0.7638016 0.1685791 1.1550446l-0.32781982 1.3016129l0 0c-0.2052002 0.81472015 -1.0307617 1.3040771 -1.8439941 1.09301l-25.936981 -6.7317314c-0.8132019 -0.21106339 -1.3061218 -1.0426254 -1.1009216 -1.8573418z" fill-rule="evenodd"/><path fill="currentColor" d="m-308.6731 67.2757l0 0c0.20516968 -0.81472015 1.0308838 -1.3045654 1.8442688 -1.094101l17.747406 4.5921783c0.39059448 0.10106659 0.7260742 0.35341644 0.93258667 0.70153046c0.20651245 0.348114 0.2671814 0.76348114 0.16864014 1.1547241l-0.32781982 1.3016129c-0.20516968 0.8147125 -1.0308838 1.3045654 -1.8442688 1.094101l-17.747437 -4.5921783c-0.8133545 -0.21046448 -1.3063965 -1.0415344 -1.1011963 -1.8562546z" fill-rule="evenodd"/><path fill="currentColor" fill-opacity="0.0" d="m-188.83612 10.392961l26.425186 0l0 42.01575l-26.425186 0z" fill-rule="evenodd"/><path fill="currentColor" d="m-177.0705 31.12546l0 -0.328125q1.03125 -0.296875 1.421875 -0.546875q0.40625 -0.265625 0.703125 -0.796875q0.296875 -0.546875 0.296875 -1.09375q0 -0.75 -0.5625 -1.28125q-0.546875 -0.546875 -1.359375 -0.546875q-1.28125 0 -2.171875 1.34375l-0.34375 -0.125q0.65625 -1.515625 1.6875 -2.28125q1.03125 -0.765625 2.28125 -0.765625q1.28125 0 2.109375 0.78125q0.84375 0.78125 0.84375 1.828125q0 0.6875 -0.390625 1.328125q-0.390625 0.625 -1.21875 1.109375q1.0625 0.515625 1.625 1.28125q0.5625 0.765625 0.5625 1.9062481q0 1.9375 -1.40625 3.296875q-1.390625 1.34375 -3.734375 1.34375q-1.5625 0 -2.296875 -0.515625q-0.515625 -0.375 -0.515625 -0.9375q0 -0.421875 0.296875 -0.71875q0.3125 -0.296875 0.703125 -0.296875q0.296875 0 0.5625 0.125q0.140625 0.078125 1.03125 0.796875q0.890625 0.71875 1.671875 0.71875q0.671875 0 1.140625 -0.53125q0.484375 -0.53125 0.484375 -1.34375q0 -1.25 -0.875 -2.296875q-0.859375 -1.0624981 -2.546875 -1.4531231z" fill-rule="nonzero"/></g></svg>
